# Blender v2.80 (sub 75) OBJ File: ''
# www.blender.org
o Cube
v 10.000000 10.000000 -10.000000
v 10.000000 -10.000000 -10.000000
v 10.000000 10.000000 10.000000
v 10.000000 -10.000000 10.000000
v -10.000000 10.000000 -10.000000
v -10.000000 -10.000000 -10.000000
v -10.000000 10.000000 10.000000
v -10.000000 -10.000000 10.000000
vt 0.375000 0.000000
vt 0.625000 0.000000
vt 0.625000 0.250000
vt 0.375000 0.250000
vt 0.375000 0.250000
vt 0.625000 0.250000
vt 0.625000 0.500000
vt 0.375000 0.500000
vt 0.625000 0.750000
vt 0.375000 0.750000
vt 0.625000 0.750000
vt 0.625000 1.000000
vt 0.375000 1.000000
vt 0.125000 0.500000
vt 0.375000 0.500000
vt 0.375000 0.750000
vt 0.125000 0.750000
vt 0.625000 0.500000
vt 0.875000 0.500000
vt 0.875000 0.750000
vn 0.5773 0.5773 -0.5773
vn -0.5773 0.5773 -0.5773
vn -0.5773 0.5773 0.5773
vn 0.5773 0.5773 0.5773
vn 0.5773 -0.5773 0.5773
vn -0.5773 -0.5773 0.5773
vn -0.5773 -0.5773 -0.5773
vn 0.5773 -0.5773 -0.5773
s 1
f 1/1/1 5/2/2 7/3/3 3/4/4
f 4/5/5 3/6/4 7/7/3 8/8/6
f 8/8/6 7/7/3 5/9/2 6/10/7
f 6/10/7 2/11/8 4/12/5 8/13/6
f 2/14/8 1/15/1 3/16/4 4/17/5
f 6/18/7 5/19/2 1/20/1 2/11/8
